<svg width="109" height="24" viewBox="0 0 109 24" fill="none" xmlns="http://www.w3.org/2000/svg">
<path fill-rule="evenodd" clip-rule="evenodd" d="M66.9133 14.1694V8.61066H69.5292V14.1694C69.5292 15.6744 68.3092 16.8943 66.8043 16.8943H62.7715V14.2784H66.8043C66.8645 14.2784 66.9133 14.2296 66.9133 14.1694Z" fill="#161616"/>
<path fill-rule="evenodd" clip-rule="evenodd" d="M31.5479 4.75208L37.8768 5.56697C39.834 5.81897 41.2995 7.48533 41.2995 9.45868V14.3875H33.625V11.7716H38.6836V9.45868C38.6836 8.8009 38.1951 8.24545 37.5427 8.16144L31.2139 7.34655L31.5479 4.75208Z" fill="#161616"/>
<path fill-rule="evenodd" clip-rule="evenodd" d="M24.5415 11.5536C24.5415 9.2059 26.4447 7.30273 28.7923 7.30273H32.6889V9.91863H28.7923C27.8894 9.91863 27.1574 10.6506 27.1574 11.5536V14.2785H32.3619V11.7716H34.9778V14.2785C34.9778 15.7232 33.8067 16.8944 32.3619 16.8944H24.5415V11.5536Z" fill="#161616"/>
<path fill-rule="evenodd" clip-rule="evenodd" d="M4.24073 12.48V7.30273H1.62484V12.48C1.62484 16.3025 4.72357 19.4013 8.54606 19.4013C12.3685 19.4013 15.4673 16.3025 15.4673 12.48V11.4858H12.8514V12.48C12.8514 14.8578 10.9238 16.7854 8.54606 16.7854C6.16829 16.7854 4.24073 14.8578 4.24073 12.48Z" fill="#161616"/>
<path fill-rule="evenodd" clip-rule="evenodd" d="M60.7005 14.2785V11.3356H63.3164V16.8944H48.8745V14.2785H60.7005Z" fill="#161616"/>
<path fill-rule="evenodd" clip-rule="evenodd" d="M21.0261 10.5726V14.2784H28.7647V16.8943H21.353C19.7277 16.8943 18.4102 15.5767 18.4102 13.9514V10.5726H21.0261Z" fill="#161616"/>
<path fill-rule="evenodd" clip-rule="evenodd" d="M18.4108 9.91859V13.0795H21.0267V9.04663C21.0267 8.08348 20.2459 7.3027 19.2828 7.3027H12.8521V13.0795H15.4679V9.91859H18.4108Z" fill="#161616"/>
<path fill-rule="evenodd" clip-rule="evenodd" d="M14.1597 21.4722C14.1597 20.5091 14.9405 19.7283 15.9036 19.7283H22.9883V22.3442H14.1597V21.4722Z" fill="#161616"/>
<path fill-rule="evenodd" clip-rule="evenodd" d="M56.2319 5.99475H65.0606V8.61065H56.2319V5.99475Z" fill="#161616"/>
<path fill-rule="evenodd" clip-rule="evenodd" d="M7.0752 5.99475H10.0181V8.61065H7.0752V5.99475Z" fill="#161616"/>
<path fill-rule="evenodd" clip-rule="evenodd" d="M46.6405 12.3165V2.72485H44.0246V12.3165C44.0246 14.8447 46.0742 16.8943 48.6024 16.8943H53.6162V8.61062H51.0003V14.2784H48.6024C47.5189 14.2784 46.6405 13.4 46.6405 12.3165Z" fill="#161616"/>
<path fill-rule="evenodd" clip-rule="evenodd" d="M61.3545 3.16092C61.3545 2.19778 62.1353 1.41699 63.0984 1.41699L65.0603 1.41699L65.0603 4.03289L61.3545 4.03289L61.3545 3.16092Z" fill="#161616"/>
<path d="M92.0923 15.6953H94.7075V10.1367H99.1108C100.949 10.1367 102.639 11.1421 103.516 12.7568L104.403 14.3877H103.182C97.3148 14.3878 91.6748 18.3071 89.4644 23.7422L92.5161 23.7461C94.4615 19.6463 98.6044 17.003 103.182 17.0029H108.768L105.815 11.5078C104.48 9.0506 101.907 7.52051 99.1108 7.52051H94.7085V4.57812C94.7085 3.61507 93.9274 2.83413 92.9644 2.83398H92.0923V15.6953ZM85.5522 15.6953H88.1685V1.96191C88.1684 0.878532 87.2899 0.000240117 86.2065 0H85.5522V15.6953ZM79.0122 15.6953H81.6274V10.7939C81.6274 9.71041 80.7491 8.83203 79.6655 8.83203H79.0122V15.6953Z" fill="#FF5C2F"/>
</svg>
